<?xml version="1.0" encoding="UTF-8" standalone="no"?>
<!-- Created with Inkscape (http://www.inkscape.org/) -->

<svg
   xmlns:dc="http://purl.org/dc/elements/1.1/"
   xmlns:cc="http://creativecommons.org/ns#"
   xmlns:rdf="http://www.w3.org/1999/02/22-rdf-syntax-ns#"
   xmlns:svg="http://www.w3.org/2000/svg"
   xmlns="http://www.w3.org/2000/svg"
   xmlns:sodipodi="http://sodipodi.sourceforge.net/DTD/sodipodi-0.dtd"
   xmlns:inkscape="http://www.inkscape.org/namespaces/inkscape"
   width="32"
   height="32"
   viewBox="0 0 32 32.000001"
   id="svg4513"
   version="1.1"
   inkscape:version="0.92.2 2405546, 2018-03-11"
   sodipodi:docname="fav.svg">
  <defs
     id="defs4515" />
  <sodipodi:namedview
     id="base"
     pagecolor="#ffffff"
     bordercolor="#666666"
     borderopacity="1.0"
     inkscape:pageopacity="0.0"
     inkscape:pageshadow="2"
     inkscape:zoom="7.9999997"
     inkscape:cx="10.9993"
     inkscape:cy="7.3354733"
     inkscape:document-units="px"
     inkscape:current-layer="layer1"
     showgrid="true"
     units="px"
     inkscape:window-width="1499"
     inkscape:window-height="1041"
     inkscape:window-x="347"
     inkscape:window-y="34"
     inkscape:window-maximized="0"
     inkscape:snap-bbox="false">
    <inkscape:grid
       type="xygrid"
       id="grid5061" />
  </sodipodi:namedview>
  <metadata
     id="metadata4518">
    <rdf:RDF>
      <cc:Work
         rdf:about="">
        <dc:format>image/svg+xml</dc:format>
        <dc:type
           rdf:resource="http://purl.org/dc/dcmitype/StillImage" />
        <dc:title />
      </cc:Work>
    </rdf:RDF>
  </metadata>
  <g
     inkscape:label="Layer 1"
     inkscape:groupmode="layer"
     id="layer1"
     transform="translate(0,-1020.3622)">
    <path
       style="fill:#330080;fill-opacity:1;stroke:none;stroke-width:1.26315784"
       d="m 28,1032.3622 c 0,-6.6274 -5.372583,-12 -12,-12 -6.627417,0 -12,5.3726 -12,12 0.0053,2.5136 0.799861,4.9622 2.260742,7 l 9.739258,13 9.742185,-13 c 1.461728,-2.0385 2.254197,-4.487 2.257815,-7 z"
       id="path3680"
       inkscape:connector-curvature="0"
       sodipodi:nodetypes="csccccc" />
    <path
       style="fill:#9f60ff;fill-opacity:0.94117647;stroke:none;stroke-width:1.26315784"
       d="m 16,0.98046875 c -6.096539,0 -11.0184562,4.92127805 -11.0195312,11.01757825 0.0049,2.3084 0.7340928,4.557587 2.0761718,6.429687 L 16,30.365234 24.945312,18.427734 C 26.287721,16.555634 27.015801,14.307 27.019531,12 27.019531,5.9028 22.097205,0.98046875 16,0.98046875 Z"
       transform="translate(0,1020.3622)"
       id="path3680-3"
       inkscape:connector-curvature="0"
       sodipodi:nodetypes="scccccs" />
    <path
       sodipodi:type="inkscape:offset"
       inkscape:radius="0.94501472"
       inkscape:original="M 16 5 L 14.351562 9.9238281 L 9.1582031 9.9707031 L 13.332031 13.060547 L 11.771484 18.013672 L 16 15 L 20.228516 18.013672 L 18.667969 13.060547 L 22.841797 9.9707031 L 17.648438 9.9238281 L 16 5 z "
       style="opacity:1;fill:#330080;fill-opacity:1;stroke:none;stroke-width:0.99999994;stroke-linecap:round;stroke-linejoin:round;stroke-miterlimit:4;stroke-dasharray:0.99999993, 0.99999993;stroke-dashoffset:0;stroke-opacity:1"
       id="path820-7"
       d="M 15.951172,4.0566406 A 0.94510922,0.94510922 0 0 0 15.103516,4.6992188 L 13.669922,8.984375 9.1503906,9.0253906 A 0.94510922,0.94510922 0 0 0 8.5957031,10.730469 l 3.6328129,2.689453 -1.357422,4.310547 a 0.94510922,0.94510922 0 0 0 1.449218,1.052734 L 16,16.160156 l 3.679688,2.623047 a 0.94510922,0.94510922 0 0 0 1.449218,-1.052734 l -1.357422,-4.310547 3.632813,-2.689453 A 0.94510922,0.94510922 0 0 0 22.849609,9.0253906 L 18.330078,8.984375 16.896484,4.6992188 A 0.94510922,0.94510922 0 0 0 15.951172,4.0566406 Z"
       transform="translate(0,1020.3622)" />
    <path
       sodipodi:type="star"
       style="opacity:1;fill:#ffffff;fill-opacity:1;stroke:none;stroke-width:0.99999994;stroke-linecap:round;stroke-linejoin:round;stroke-miterlimit:4;stroke-dasharray:0.99999993, 0.99999993;stroke-dashoffset:0;stroke-opacity:1"
       id="path820"
       sodipodi:sides="5"
       sodipodi:cx="15.999998"
       sodipodi:cy="1032.5564"
       sodipodi:r1="7.1942482"
       sodipodi:r2="2.8057568"
       sodipodi:arg1="-1.5707963"
       sodipodi:arg2="-0.9424778"
       inkscape:flatsided="false"
       inkscape:rounded="0"
       inkscape:randomized="0"
       d="m 15.999998,1025.3621 1.649183,4.9244 5.192954,0.047 -4.173704,3.0901 1.56024,4.9533 -4.228673,-3.0145 -4.228673,3.0145 1.56024,-4.9533 -4.1737035,-3.0901 5.1929545,-0.047 z"
       inkscape:transform-center-y="-0.68715886" />
  </g>
</svg>
