<?xml version="1.0" encoding="UTF-8" standalone="no"?>
<!-- Created with Inkscape (http://www.inkscape.org/) -->

<svg
   xmlns:dc="http://purl.org/dc/elements/1.1/"
   xmlns:cc="http://creativecommons.org/ns#"
   xmlns:rdf="http://www.w3.org/1999/02/22-rdf-syntax-ns#"
   xmlns:svg="http://www.w3.org/2000/svg"
   xmlns="http://www.w3.org/2000/svg"
   xmlns:sodipodi="http://sodipodi.sourceforge.net/DTD/sodipodi-0.dtd"
   xmlns:inkscape="http://www.inkscape.org/namespaces/inkscape"
   width="32"
   height="32"
   viewBox="0 0 32 32.000001"
   id="svg4513"
   version="1.1"
   inkscape:version="0.92.2 2405546, 2018-03-11"
   sodipodi:docname="gps.svg">
  <defs
     id="defs4515" />
  <sodipodi:namedview
     id="base"
     pagecolor="#ffffff"
     bordercolor="#666666"
     borderopacity="1.0"
     inkscape:pageopacity="0.0"
     inkscape:pageshadow="2"
     inkscape:zoom="11.313708"
     inkscape:cx="2.6787812"
     inkscape:cy="30.108703"
     inkscape:document-units="px"
     inkscape:current-layer="layer1"
     showgrid="true"
     units="px"
     inkscape:window-width="1920"
     inkscape:window-height="1138"
     inkscape:window-x="0"
     inkscape:window-y="34"
     inkscape:window-maximized="1">
    <inkscape:grid
       type="xygrid"
       id="grid5061" />
  </sodipodi:namedview>
  <metadata
     id="metadata4518">
    <rdf:RDF>
      <cc:Work
         rdf:about="">
        <dc:format>image/svg+xml</dc:format>
        <dc:type
           rdf:resource="http://purl.org/dc/dcmitype/StillImage" />
        <dc:title></dc:title>
      </cc:Work>
    </rdf:RDF>
  </metadata>
  <g
     inkscape:label="Layer 1"
     inkscape:groupmode="layer"
     id="layer1"
     transform="translate(0,-1020.3622)">
    <path
       style="fill:#ce5c00;fill-opacity:1;stroke:none;stroke-width:1.26315784"
       d="M 16 0 C 9.372583 0 4 5.3726 4 12 C 4.0053 14.5136 4.7988846 16.9622 6.2597656 19 L 16 32 L 25.742188 19 C 27.203916 16.9615 27.996382 14.513 28 12 C 28 5.3726 22.627417 0 16 0 z "
       transform="translate(0,1020.3622)"
       id="path3680" />
    <path
       style="fill:#fcaf3e;fill-opacity:1;stroke:none;stroke-width:1.26315784"
       d="M 16 0.98046875 C 9.903461 0.98046875 4.9815438 5.9017466 4.9804688 11.998047 C 4.9853688 14.306447 5.7145616 16.555634 7.0566406 18.427734 L 16 30.365234 L 24.945312 18.427734 C 26.287721 16.555634 27.015801 14.307 27.019531 12 C 27.019531 5.9028 22.097205 0.98046875 16 0.98046875 z M 15 3.0605469 L 15 8.1308594 A 4 4 0 0 1 16 8 A 4 4 0 0 1 17 8.1328125 L 17 3.0683594 A 9 9 0 0 1 24.933594 11 L 19.869141 11 A 4 4 0 0 1 20 12 A 4 4 0 0 1 19.867188 13 L 24.939453 13 A 9 9 0 0 1 17 20.939453 L 17 15.869141 A 4 4 0 0 1 16 16 A 4 4 0 0 1 15 15.867188 L 15 20.931641 A 9 9 0 0 1 7.0664062 13 L 12.130859 13 A 4 4 0 0 1 12 12 A 4 4 0 0 1 12.132812 11 L 7.0605469 11 A 9 9 0 0 1 15 3.0605469 z M 16 11 A 1 1 0 0 0 15 12 A 1 1 0 0 0 16 13 A 1 1 0 0 0 17 12 A 1 1 0 0 0 16 11 z "
       id="path3680-3"
       transform="translate(0,1020.3622)" />
    <path
       style="fill:#ffffff;fill-opacity:1;stroke:none;stroke-width:1.25"
       d="M 18 4.265625 L 18 9.7695312 A 3 3 0 0 0 16 9 A 3 3 0 0 0 14 9.7675781 L 14 4.2734375 A 8 7.9999995 0 0 0 8.2734375 10 L 13.769531 10 A 3 3 0 0 0 13 12 A 3 3 0 0 0 13.767578 14 L 8.2734375 14 A 8 7.9999995 0 0 0 14 19.734375 L 14 14.230469 A 3 3 0 0 0 16 15 A 3 3 0 0 0 18 14.232422 L 18 19.726562 A 8 7.9999995 0 0 0 23.726562 14 L 18.230469 14 A 3 3 0 0 0 19 12 A 3 3 0 0 0 18.232422 10 L 23.726562 10 A 8 7.9999995 0 0 0 18 4.265625 z M 16 10 A 2 2 0 0 1 18 12 A 2 2 0 0 1 16 14 A 2 2 0 0 1 14 12 A 2 2 0 0 1 16 10 z "
       transform="translate(0,1020.3622)"
       id="path3704-6" />
  </g>
</svg>
