<?xml version="1.0" encoding="UTF-8" standalone="no"?>
<!-- Created with Inkscape (http://www.inkscape.org/) -->

<svg
   xmlns:dc="http://purl.org/dc/elements/1.1/"
   xmlns:cc="http://creativecommons.org/ns#"
   xmlns:rdf="http://www.w3.org/1999/02/22-rdf-syntax-ns#"
   xmlns:svg="http://www.w3.org/2000/svg"
   xmlns="http://www.w3.org/2000/svg"
   xmlns:sodipodi="http://sodipodi.sourceforge.net/DTD/sodipodi-0.dtd"
   xmlns:inkscape="http://www.inkscape.org/namespaces/inkscape"
   width="236"
   height="108"
   viewBox="0 0 236.00002 108"
   id="svg2"
   version="1.1"
   inkscape:version="0.92.2 2405546, 2018-03-11"
   sodipodi:docname="logo.svg">
  <defs
     id="defs4" />
  <sodipodi:namedview
     id="base"
     pagecolor="#ffffff"
     bordercolor="#666666"
     borderopacity="1.0"
     inkscape:pageopacity="0.0"
     inkscape:pageshadow="2"
     inkscape:zoom="2"
     inkscape:cx="178.69973"
     inkscape:cy="15.450197"
     inkscape:document-units="px"
     inkscape:current-layer="layer1"
     showgrid="true"
     fit-margin-top="0"
     fit-margin-left="0"
     fit-margin-right="0"
     fit-margin-bottom="0"
     inkscape:window-width="1920"
     inkscape:window-height="1172"
     inkscape:window-x="1920"
     inkscape:window-y="0"
     inkscape:window-maximized="1"
     units="px">
    <inkscape:grid
       type="xygrid"
       id="grid4138"
       originx="48.000005"
       originy="8.4177082e-06" />
  </sodipodi:namedview>
  <metadata
     id="metadata7">
    <rdf:RDF>
      <cc:Work
         rdf:about="">
        <dc:format>image/svg+xml</dc:format>
        <dc:type
           rdf:resource="http://purl.org/dc/dcmitype/StillImage" />
        <dc:title></dc:title>
      </cc:Work>
    </rdf:RDF>
  </metadata>
  <g
     inkscape:label="Layer 1"
     inkscape:groupmode="layer"
     id="layer1"
     transform="translate(47.999999,-944.3622)">
    <path
       style="opacity:1;fill:#7b2920;fill-opacity:1;stroke:none;stroke-width:1;stroke-linecap:round;stroke-linejoin:round;stroke-miterlimit:10.43299961;stroke-dasharray:none;stroke-opacity:1"
       d="m 23.999979,944.36218 v 72.00002 h 7.999998 v -12 -4 h 3.999999 v 4 12 h 7.999999 v -12 -4 h -3.999999 v -4.00001 h 3.999999 v -4 -12 h -7.999999 v 12 4 h -3.999999 v -4 -48.00001 z"
       id="path4149"
       inkscape:connector-curvature="0" />
    <path
       id="path4141"
       style="opacity:1;fill:#7b2920;fill-opacity:1;stroke:none;stroke-width:1;stroke-linecap:round;stroke-linejoin:round;stroke-miterlimit:10.43299961;stroke-dasharray:none;stroke-opacity:1"
       d="m -40,984.36219 h 3.999999 v 28.00001 H -40 Z m -7.999999,-4 v 72.00001 H -40 v -36 h 5.999998 5.999999 V 980.36219 H -34.000002 -40 -42 Z"
       inkscape:connector-curvature="0" />
    <path
       id="path4139"
       style="opacity:1;fill:#d36255;fill-opacity:1;stroke:none;stroke-width:1;stroke-linecap:round;stroke-linejoin:round;stroke-miterlimit:10.43299961;stroke-dasharray:none;stroke-opacity:1"
       d="m 127.99997,984.36219 h 4 v 28.00001 h -4 z m 4,-40.00001 v 36.00001 h -4 -8 v 36.00001 h 8 5.99999 6 v -72.00002 z"
       inkscape:connector-curvature="0" />
    <path
       style="opacity:1;fill:#7b2920;fill-opacity:1;stroke:none;stroke-width:1;stroke-linecap:round;stroke-linejoin:round;stroke-miterlimit:10.43299961;stroke-dasharray:none;stroke-opacity:1"
       d="m -24.000004,980.36219 v 4 8 h 7.999999 v -8 h 3.999999 v 12 h -3.999999 -7.999999 v 4.00001 12 4 h 19.9999964 v -4 -32.00001 H -16.000005 Z m 7.999999,20.00001 h 3.999999 v 12 h -3.999999 z"
       id="rect4169"
       inkscape:connector-curvature="0" />
    <path
       style="opacity:1;fill:#7b2920;fill-opacity:1;stroke:none;stroke-width:1;stroke-linecap:round;stroke-linejoin:round;stroke-miterlimit:10.43299961;stroke-dasharray:none;stroke-opacity:1"
       d="m -1.6399998e-5,980.36219 v 32.00001 4 H 7.999982 v -4 -12 -4.00001 -12 h 3.999999 v 8 h 7.999999 v -8 -4 h -7.999999 z"
       id="rect4169-3"
       inkscape:connector-curvature="0" />
    <path
       style="opacity:1;fill:#7b2920;fill-opacity:1;stroke:none;stroke-width:1;stroke-linecap:round;stroke-linejoin:round;stroke-miterlimit:10.43299961;stroke-dasharray:none;stroke-opacity:1"
       d="m 47.999982,980.36219 v 4 28.00001 4 h 7.999998 4 7.999998 v -4 -32.00001 H 55.99998 Z m 7.999998,4 h 4 v 28.00001 h -4 z"
       id="rect4171-3-6"
       inkscape:connector-curvature="0" />
    <path
       style="opacity:1;fill:#d36255;fill-opacity:1;stroke:none;stroke-width:1;stroke-linecap:round;stroke-linejoin:round;stroke-miterlimit:10.43299961;stroke-dasharray:none;stroke-opacity:1"
       d="m 163.99996,1016.3622 v -4 -8 h -8 v 8 h -4 v -12 h 4 8 v -4.00001 -12 -4 h -20 v 4 32.00001 h 12 z m -8,-20.00001 h -4 v -12 h 4 z"
       id="rect4169-2"
       inkscape:connector-curvature="0" />
    <path
       style="opacity:1;fill:#d36255;fill-opacity:1;stroke:none;stroke-width:1;stroke-linecap:round;stroke-linejoin:round;stroke-miterlimit:10.43299961;stroke-dasharray:none;stroke-opacity:1"
       d="m 167.99995,980.36219 v 16 h 4 v 4.00001 h -4 v 16 h 8 v -16 h 4 v 16 h 8 v -16 h -4 v -4.00001 h 4 v -16 h -8 v 16 h -4 v -16 z"
       id="path4149-7"
       inkscape:connector-curvature="0" />
    <path
       inkscape:connector-curvature="0"
       style="opacity:1;fill:#7b2920;fill-opacity:1;stroke:none;stroke-width:1;stroke-linecap:round;stroke-linejoin:round;stroke-miterlimit:10.43299961;stroke-dasharray:none;stroke-opacity:1"
       d="m 95.999972,980.36219 v 32.00001 4 h 7.999998 v -4 -12 -4.00001 -12 h 4 v 8 h 8 v -8 -4 h -8 z"
       id="rect4169-3-0" />
    <rect
       style="opacity:1;fill:#7b2920;fill-opacity:1;stroke:none;stroke-width:1;stroke-linecap:round;stroke-linejoin:round;stroke-miterlimit:10.43299961;stroke-dasharray:none;stroke-opacity:1"
       id="rect4171-3-9"
       width="7.9999995"
       height="36"
       x="83.999969"
       y="980.36218" />
    <rect
       style="opacity:1;fill:#7b2920;fill-opacity:1;stroke:none;stroke-width:1;stroke-linecap:round;stroke-linejoin:round;stroke-miterlimit:10.43299961;stroke-dasharray:none;stroke-opacity:1"
       id="rect4171-3-5-3"
       width="8"
       height="36.000004"
       x="71.999969"
       y="980.36218" />
    <rect
       style="opacity:1;fill:#7b2920;fill-opacity:1;stroke:none;stroke-width:1;stroke-linecap:round;stroke-linejoin:round;stroke-miterlimit:10.43299961;stroke-dasharray:none;stroke-opacity:1"
       id="rect4169-6-7-2-6-6"
       width="19.999992"
       height="4.0000005"
       x="71.999977"
       y="1012.3622" />
  </g>
</svg>
