<?xml version="1.0" encoding="UTF-8" standalone="no"?>
<!-- Created with Inkscape (http://www.inkscape.org/) -->

<svg
   xmlns:dc="http://purl.org/dc/elements/1.1/"
   xmlns:cc="http://creativecommons.org/ns#"
   xmlns:rdf="http://www.w3.org/1999/02/22-rdf-syntax-ns#"
   xmlns:svg="http://www.w3.org/2000/svg"
   xmlns="http://www.w3.org/2000/svg"
   xmlns:sodipodi="http://sodipodi.sourceforge.net/DTD/sodipodi-0.dtd"
   xmlns:inkscape="http://www.inkscape.org/namespaces/inkscape"
   width="640"
   height="400"
   viewBox="0 0 169.33333 105.83333"
   version="1.1"
   id="svg8"
   inkscape:version="0.92.2 2405546, 2018-03-11"
   sodipodi:docname="photoblank.svg">
  <defs
     id="defs2" />
  <sodipodi:namedview
     id="base"
     pagecolor="#ffffff"
     bordercolor="#666666"
     borderopacity="1.0"
     inkscape:pageopacity="0.0"
     inkscape:pageshadow="2"
     inkscape:zoom="0.70710678"
     inkscape:cx="532.85362"
     inkscape:cy="-1.5374686"
     inkscape:document-units="px"
     inkscape:current-layer="layer1"
     showgrid="false"
     units="px"
     inkscape:window-width="1920"
     inkscape:window-height="1172"
     inkscape:window-x="1920"
     inkscape:window-y="0"
     inkscape:window-maximized="1" />
  <metadata
     id="metadata5">
    <rdf:RDF>
      <cc:Work
         rdf:about="">
        <dc:format>image/svg+xml</dc:format>
        <dc:type
           rdf:resource="http://purl.org/dc/dcmitype/StillImage" />
        <dc:title></dc:title>
      </cc:Work>
    </rdf:RDF>
  </metadata>
  <g
     inkscape:label="Layer 1"
     inkscape:groupmode="layer"
     id="layer1"
     transform="translate(0,-191.16665)">
    <rect
       style="opacity:1;fill:#c87138;fill-opacity:1;stroke:none;stroke-width:0.26458332;stroke-linecap:round;stroke-linejoin:round;stroke-miterlimit:4;stroke-dasharray:0.26458333, 0.26458333;stroke-dashoffset:0;stroke-opacity:1"
       id="rect50"
       width="169.33333"
       height="105.83333"
       x="1.2715658e-06"
       y="191.16664"
       rx="0.26458332"
       ry="0.26458332" />
    <g
       id="g817"
       transform="matrix(1.7071068,0,0,1.7071068,12.399146,-208.72672)"
       style="stroke-width:0.58578646">
      <path
         inkscape:connector-curvature="0"
         id="text12-3"
         transform="matrix(0.26458333,0,0,0.26458333,0,233.49998)"
         d="m 63.427734,76 -4.380859,4.380859 V 97.904297 H 76.572266 V 93.523438 H 107.23828 V 115.42773 H 85.333984 l -4.380859,4.38086 v 21.90625 h 17.523437 v -13.14257 h 21.904298 l 4.38086,-4.38086 V 80.380859 L 120.38086,76 Z m 70.095706,0 -4.38086,4.380859 v 17.523438 h 17.52344 v -4.380859 h 30.66796 v 21.904292 h -21.90625 l -4.38085,4.38086 v 21.90625 h 17.52539 v -13.14257 h 21.90429 l 4.38086,-4.38086 V 80.380859 L 190.47656,76 Z m 70.0957,0 -4.38086,4.380859 v 17.523438 h 17.52344 v -4.380859 h 30.66601 v 21.904292 h -21.90429 l -4.38086,4.38086 v 21.90625 h 17.52344 v -13.14257 h 21.90625 l 4.38085,-4.38086 V 80.380859 L 260.57227,76 Z M 80.953125,154.85742 V 168 h 17.523437 v -13.14258 z m 70.093755,0 V 168 h 17.52539 v -13.14258 z m 70.0957,0 V 168 h 17.52344 v -13.14258 z"
         style="font-style:normal;font-variant:normal;font-weight:normal;font-stretch:normal;font-size:37.0920639px;line-height:28.97817421px;font-family:'Delphine II';-inkscape-font-specification:'Delphine II';letter-spacing:0px;word-spacing:0px;fill:#000000;fill-opacity:1;stroke:none;stroke-width:0.58578658px;stroke-linecap:butt;stroke-linejoin:miter;stroke-opacity:1" />
      <path
         inkscape:connector-curvature="0"
         id="text12"
         transform="matrix(0.26458333,0,0,0.26458333,0,233.49998)"
         d="m 59.427734,72 -4.380859,4.380859 V 93.904297 H 72.572266 V 89.523438 H 103.23828 V 111.42773 H 81.333984 l -4.380859,4.38086 v 21.90625 h 17.523437 v -13.14257 h 21.904298 l 4.38086,-4.38282 V 76.380859 L 116.38086,72 Z m 70.095706,0 -4.38086,4.380859 v 17.523438 h 17.52344 v -4.380859 h 30.66796 v 21.904292 h -21.90625 l -4.38085,4.38086 v 21.90625 h 17.52539 v -13.14257 h 21.90429 l 4.38086,-4.38282 V 76.380859 L 186.47656,72 Z m 70.0957,0 -4.38086,4.380859 v 17.523438 h 17.52344 v -4.380859 h 30.66601 v 21.904292 h -21.90429 l -4.38086,4.38086 v 21.90625 h 17.52344 v -13.14257 h 21.90625 l 4.38085,-4.38282 V 76.380859 L 256.57227,72 Z M 76.953125,150.85742 V 164 h 17.523437 v -13.14258 z m 70.093755,0 V 164 h 17.52539 v -13.14258 z m 70.0957,0 V 164 h 17.52344 v -13.14258 z"
         style="font-style:normal;font-variant:normal;font-weight:normal;font-stretch:normal;font-size:37.0920639px;line-height:28.97817421px;font-family:'Delphine II';-inkscape-font-specification:'Delphine II';letter-spacing:0px;word-spacing:0px;fill:#ffffff;fill-opacity:1;stroke:none;stroke-width:0.58578652px;stroke-linecap:butt;stroke-linejoin:miter;stroke-opacity:1" />
    </g>
  </g>
</svg>
