<?xml version="1.0" encoding="UTF-8" standalone="no"?>
<!-- Created with Inkscape (http://www.inkscape.org/) -->

<svg
   xmlns:dc="http://purl.org/dc/elements/1.1/"
   xmlns:cc="http://creativecommons.org/ns#"
   xmlns:rdf="http://www.w3.org/1999/02/22-rdf-syntax-ns#"
   xmlns:svg="http://www.w3.org/2000/svg"
   xmlns="http://www.w3.org/2000/svg"
   xmlns:sodipodi="http://sodipodi.sourceforge.net/DTD/sodipodi-0.dtd"
   xmlns:inkscape="http://www.inkscape.org/namespaces/inkscape"
   width="32"
   height="32"
   viewBox="0 0 32 32.000001"
   id="svg4513"
   version="1.1"
   inkscape:version="0.92.2 2405546, 2018-03-11"
   sodipodi:docname="pin.svg">
  <defs
     id="defs4515" />
  <sodipodi:namedview
     id="base"
     pagecolor="#ffffff"
     bordercolor="#666666"
     borderopacity="1.0"
     inkscape:pageopacity="0.0"
     inkscape:pageshadow="2"
     inkscape:zoom="5.656854"
     inkscape:cx="29.829434"
     inkscape:cy="20.277993"
     inkscape:document-units="px"
     inkscape:current-layer="layer1"
     showgrid="true"
     units="px"
     inkscape:window-width="1345"
     inkscape:window-height="970"
     inkscape:window-x="515"
     inkscape:window-y="113"
     inkscape:window-maximized="0"
     inkscape:snap-bbox="false">
    <inkscape:grid
       type="xygrid"
       id="grid5061" />
  </sodipodi:namedview>
  <metadata
     id="metadata4518">
    <rdf:RDF>
      <cc:Work
         rdf:about="">
        <dc:format>image/svg+xml</dc:format>
        <dc:type
           rdf:resource="http://purl.org/dc/dcmitype/StillImage" />
        <dc:title />
      </cc:Work>
    </rdf:RDF>
  </metadata>
  <g
     inkscape:label="Layer 1"
     inkscape:groupmode="layer"
     id="layer1"
     transform="translate(0,-1020.3622)">
    <path
       style="fill:#651208;fill-opacity:1;stroke:none;stroke-width:1.26315784"
       d="m 28,1032.3622 c 0,-6.6274 -5.372583,-12 -12,-12 -6.627417,0 -12,5.3726 -12,12 0.0053,2.5136 0.799861,4.9622 2.260742,7 l 9.739258,13 9.742185,-13 c 1.461728,-2.0385 2.254197,-4.487 2.257815,-7 z"
       id="path3680"
       inkscape:connector-curvature="0"
       sodipodi:nodetypes="csccccc" />
    <path
       style="fill:#b6170f;fill-opacity:0.94117647;stroke:none;stroke-width:1.26315784"
       d="M 16 0.98046875 C 9.903461 0.98046875 4.9815438 5.9017468 4.9804688 11.998047 C 4.9853688 14.306447 5.7145616 16.555634 7.0566406 18.427734 L 16 30.365234 L 24.945312 18.427734 C 26.287721 16.555634 27.015801 14.307 27.019531 12 C 27.019531 5.9028 22.097205 0.98046875 16 0.98046875 z M 16 8 A 4 4 0 0 1 20 12 A 4 4 0 0 1 16 16 A 4 4 0 0 1 12 12 A 4 4 0 0 1 16 8 z "
       transform="translate(0,1020.3622)"
       id="path3680-3" />
    <circle
       style="opacity:1;fill:#ffffff;fill-opacity:1;stroke:none;stroke-width:1;stroke-linecap:round;stroke-linejoin:round;stroke-miterlimit:4;stroke-dasharray:1, 1;stroke-dashoffset:0;stroke-opacity:1"
       id="path886"
       cx="16"
       cy="1032.3622"
       r="3" />
    <circle
       style="opacity:1;fill:#651208;fill-opacity:1;stroke:none;stroke-width:0.99999994;stroke-linecap:round;stroke-linejoin:round;stroke-miterlimit:4;stroke-dasharray:1.00000007, 1.00000007000000002;stroke-dashoffset:0;stroke-opacity:1"
       id="path860"
       cx="16"
       cy="1032.3622"
       r="5" />
    <circle
       style="opacity:1;fill:#ffffff;fill-opacity:1;stroke:none;stroke-width:0.99999982;stroke-linecap:round;stroke-linejoin:round;stroke-miterlimit:4;stroke-dasharray:1.00000001, 1.00000001;stroke-dashoffset:0;stroke-opacity:1"
       id="path860-3"
       cx="15.999999"
       cy="1032.3622"
       r="3.9999998" />
  </g>
</svg>
